HIERARCHY
ROOT Hips
{
    OFFSET   0.000000   0.000000   0.000000
    CHANNELS 6 Xposition Yposition Zposition Zrotation Xrotation Yrotation
    JOINT Chest
    {
        OFFSET   0.000000   8.007230   0.000000
        CHANNELS 3 Zrotation Xrotation Yrotation
        JOINT Chest2
        {
            OFFSET   0.000000  22.077100   0.000000
            CHANNELS 3 Zrotation Xrotation Yrotation
            JOINT Neck
            {
                OFFSET   0.000000  23.254800  -0.000021
                CHANNELS 3 Zrotation Xrotation Yrotation
                JOINT Head
                {
                    OFFSET   0.000000  14.370000   1.956610
                    CHANNELS 3 Zrotation Xrotation Yrotation
                    End Site
                    {
                        OFFSET   0.000000  19.566000   0.000000
                    }
                }
            }
            JOINT LeftCollar
            {
                OFFSET   3.911900  19.017000  -0.467063
                CHANNELS 3 Zrotation Xrotation Yrotation
                JOINT LeftShoulder
                {
                    OFFSET  10.383700   0.000000   0.000000
                    CHANNELS 3 Zrotation Xrotation Yrotation
                    JOINT LeftElbow
                    {
                        OFFSET  26.662100   0.001529   0.000325
                        CHANNELS 3 Zrotation Xrotation Yrotation
                        JOINT LeftWrist
                        {
                            OFFSET  28.869000  -0.000011  -0.000096
                            CHANNELS 3 Zrotation Xrotation Yrotation
                            JOINT LeftFinger0
                            {
                                OFFSET   2.044650  -2.323460   3.252850
                                CHANNELS 3 Zrotation Xrotation Yrotation
                                JOINT LeftFinger01
                                {
                                    OFFSET   3.088130   0.000000   0.000000
                                    CHANNELS 3 Zrotation Xrotation Yrotation
                                    JOINT LeftFinger02
                                    {
                                        OFFSET   2.639460   0.000000   0.000000
                                        CHANNELS 3 Zrotation Xrotation Yrotation
                                        End Site
                                        {
                                            OFFSET   2.582190   0.000000   0.000000
                                        }
                                    }
                                }
                            }
                            JOINT LeftFinger1
                            {
                                OFFSET   8.364480   0.000000   3.252850
                                CHANNELS 3 Zrotation Xrotation Yrotation
                                JOINT LeftFinger11
                                {
                                    OFFSET   4.646930   0.000000   0.000000
                                    CHANNELS 3 Zrotation Xrotation Yrotation
                                    JOINT LeftFinger12
                                    {
                                        OFFSET   2.323460   0.000000   0.000000
                                        CHANNELS 3 Zrotation Xrotation Yrotation
                                        End Site
                                        {
                                            OFFSET   2.273050   0.000000   0.000000
                                        }
                                    }
                                }
                            }
                            JOINT LeftFinger2
                            {
                                OFFSET   8.364480   0.000016   1.078090
                                CHANNELS 3 Zrotation Xrotation Yrotation
                                JOINT LeftFinger21
                                {
                                    OFFSET   5.111620   0.000000   0.000000
                                    CHANNELS 3 Zrotation Xrotation Yrotation
                                    JOINT LeftFinger22
                                    {
                                        OFFSET   2.788160   0.000017   0.000000
                                        CHANNELS 3 Zrotation Xrotation Yrotation
                                        End Site
                                        {
                                            OFFSET   2.727660   0.000000   0.000000
                                        }
                                    }
                                }
                            }
                            JOINT LeftFinger3
                            {
                                OFFSET   7.899780   0.000015  -1.078090
                                CHANNELS 3 Zrotation Xrotation Yrotation
                                JOINT LeftFinger31
                                {
                                    OFFSET   4.646920   0.000000   0.000000
                                    CHANNELS 3 Zrotation Xrotation Yrotation
                                    JOINT LeftFinger32
                                    {
                                        OFFSET   2.323470   0.000000   0.000000
                                        CHANNELS 3 Zrotation Xrotation Yrotation
                                        End Site
                                        {
                                            OFFSET   2.273050   0.000000   0.000000
                                        }
                                    }
                                }
                            }
                            JOINT LeftFinger4
                            {
                                OFFSET   7.435090   0.000000  -3.252850
                                CHANNELS 3 Zrotation Xrotation Yrotation
                                JOINT LeftFinger41
                                {
                                    OFFSET   3.717550   0.000000   0.000000
                                    CHANNELS 3 Zrotation Xrotation Yrotation
                                    JOINT LeftFinger42
                                    {
                                        OFFSET   1.858760   0.000000   0.000000
                                        CHANNELS 3 Zrotation Xrotation Yrotation
                                        End Site
                                        {
                                            OFFSET   1.818440   0.000000   0.000000
                                        }
                                    }
                                }
                            }
                        }
                    }
                }
            }
            JOINT RightCollar
            {
                OFFSET  -3.911900  19.017000  -0.467062
                CHANNELS 3 Zrotation Xrotation Yrotation
                JOINT RightShoulder
                {
                    OFFSET -10.383700   0.000015   0.000000
                    CHANNELS 3 Zrotation Xrotation Yrotation
                    JOINT RightElbow
                    {
                        OFFSET -26.662100   0.001341   0.000385
                        CHANNELS 3 Zrotation Xrotation Yrotation
                        JOINT RightWrist
                        {
                            OFFSET -28.869000   0.000025  -0.000080
                            CHANNELS 3 Zrotation Xrotation Yrotation
                            JOINT RightFinger0
                            {
                                OFFSET  -2.044650  -2.323490   3.252850
                                CHANNELS 3 Zrotation Xrotation Yrotation
                                JOINT RightFinger01
                                {
                                    OFFSET  -3.088130   0.000000   0.000000
                                    CHANNELS 3 Zrotation Xrotation Yrotation
                                    JOINT RightFinger02
                                    {
                                        OFFSET  -2.639460   0.000000   0.000000
                                        CHANNELS 3 Zrotation Xrotation Yrotation
                                        End Site
                                        {
                                            OFFSET  -2.582190   0.000000   0.000000
                                        }
                                    }
                                }
                            }
                            JOINT RightFinger1
                            {
                                OFFSET  -8.364480   0.000000   3.252850
                                CHANNELS 3 Zrotation Xrotation Yrotation
                                JOINT RightFinger11
                                {
                                    OFFSET  -4.646930   0.000000   0.000000
                                    CHANNELS 3 Zrotation Xrotation Yrotation
                                    JOINT RightFinger12
                                    {
                                        OFFSET  -2.323470   0.000000   0.000000
                                        CHANNELS 3 Zrotation Xrotation Yrotation
                                        End Site
                                        {
                                            OFFSET  -2.273050   0.000000   0.000000
                                        }
                                    }
                                }
                            }
                            JOINT RightFinger2
                            {
                                OFFSET  -8.364480   0.000000   1.078090
                                CHANNELS 3 Zrotation Xrotation Yrotation
                                JOINT RightFinger21
                                {
                                    OFFSET  -5.111610   0.000000   0.000000
                                    CHANNELS 3 Zrotation Xrotation Yrotation
                                    JOINT RightFinger22
                                    {
                                        OFFSET  -2.788160   0.000000   0.000000
                                        CHANNELS 3 Zrotation Xrotation Yrotation
                                        End Site
                                        {
                                            OFFSET  -2.727660   0.000000   0.000000
                                        }
                                    }
                                }
                            }
                            JOINT RightFinger3
                            {
                                OFFSET  -7.899780   0.000000  -1.078090
                                CHANNELS 3 Zrotation Xrotation Yrotation
                                JOINT RightFinger31
                                {
                                    OFFSET  -4.646920   0.000000   0.000000
                                    CHANNELS 3 Zrotation Xrotation Yrotation
                                    JOINT RightFinger32
                                    {
                                        OFFSET  -2.323470   0.000000   0.000000
                                        CHANNELS 3 Zrotation Xrotation Yrotation
                                        End Site
                                        {
                                            OFFSET  -2.273050   0.000000   0.000000
                                        }
                                    }
                                }
                            }
                            JOINT RightFinger4
                            {
                                OFFSET  -7.435090   0.000000  -3.252850
                                CHANNELS 3 Zrotation Xrotation Yrotation
                                JOINT RightFinger41
                                {
                                    OFFSET  -3.717550   0.000000   0.000000
                                    CHANNELS 3 Zrotation Xrotation Yrotation
                                    JOINT RightFinger42
                                    {
                                        OFFSET  -1.858770   0.000000   0.000000
                                        CHANNELS 3 Zrotation Xrotation Yrotation
                                        End Site
                                        {
                                            OFFSET  -1.818440   0.000000   0.000000
                                        }
                                    }
                                }
                            }
                        }
                    }
                }
            }
        }
    }
    JOINT LeftHip
    {
        OFFSET   9.783010   0.000000   0.000000
        CHANNELS 3 Zrotation Xrotation Yrotation
        JOINT LeftKnee
        {
            OFFSET   0.000070 -41.789100   0.000028
            CHANNELS 3 Zrotation Xrotation Yrotation
            JOINT LeftAnkle
            {
                OFFSET   0.000087 -41.133200  -0.000100
                CHANNELS 3 Zrotation Xrotation Yrotation
                JOINT LeftToe
                {
                    OFFSET   0.000000  -6.358960  14.674500
                    CHANNELS 3 Zrotation Xrotation Yrotation
                    End Site
                    {
                        OFFSET   0.000000   0.000000   3.913200
                    }
                }
            }
        }
    }
    JOINT RightHip
    {
        OFFSET  -9.783020   0.000000   0.000000
        CHANNELS 3 Zrotation Xrotation Yrotation
        JOINT RightKnee
        {
            OFFSET   0.000044 -41.789100  -0.000870
            CHANNELS 3 Zrotation Xrotation Yrotation
            JOINT RightAnkle
            {
                OFFSET  -0.000090 -41.133200  -0.000245
                CHANNELS 3 Zrotation Xrotation Yrotation
                JOINT RightToe
                {
                    OFFSET   0.000000  -6.358960  14.674500
                    CHANNELS 3 Zrotation Xrotation Yrotation
                    End Site
                    {
                        OFFSET   0.000000   0.000000   3.913200
                    }
                }
            }
        }
    }
}
MOTION
Frames: 5
Frame Time:   0.016667
 -8.639780  88.144000   0.348141  -1.679770 -22.889400  -0.258389   1.651320  12.149000  -2.602140   4.020030  24.200900  -5.771590  -1.326680   3.754960   0.086913  -2.205990   7.601570   5.471990  -9.688450  -8.065470   7.391440 -68.283200   7.502140 -29.066300   8.046360   5.502840 -51.287700  -1.209530 -22.849700 -14.426500  44.523500  19.737800 -46.891400 -10.245400   0.000303   0.000087  -0.122719   0.003442  -0.002157   2.508630   0.213938   4.849710  -0.000000   0.001957   0.005141   0.007041   0.000605   0.005787  -8.282180  -0.991911   6.781310  -8.342160   0.002406  -0.002599  -5.555890   0.002069   0.000750  -2.800970  -0.336332   6.845400  -2.822280   0.001604   0.006715  -1.879630   0.001109  -0.001388  -6.553090  -1.038960   8.970530  -9.955560   0.000389  -0.001354  -6.630390  -0.002032   0.003368   8.242700  -3.438400  15.822400  63.086200  -3.683390  23.517000 -11.867500  -2.057550  48.044400 -21.723600 -23.468600  27.612300 -44.416300  28.485000  63.762300  -2.045500   0.001469  -0.000123  -6.022740   0.007130   0.002867   7.787470  -0.096823  -0.725200   6.373980  -0.001228  -0.000648   4.461800  -0.000333  -0.001625  10.788000  -0.134028  -0.719951  10.791200   0.006618  -0.002259   7.186940   0.004720  -0.006316   6.237540  -0.076419  -0.728358   6.240360   0.003129  -0.001308   4.156090   0.001241  -0.005956  13.337900  -0.165877  -0.713414  20.012000  -0.002106  -0.005521  13.328000   0.000279  -0.002264   8.083540  12.383800  -1.196360   3.086220  23.879200   6.882710  -9.206290 -12.485100  -3.091120   0.000000   0.000000  -0.000000   6.561790  22.874800  -5.593350  -0.135741   4.909860 -12.436300  -2.613790  -6.113420  -1.275170  -0.000000   0.000000  -0.000000
 -8.660330  88.152100   0.339354  -1.695060 -22.871600  -0.319646   1.663120  12.176600  -2.600750   4.046060  24.255300  -5.773070  -1.345910   3.508500   0.082409  -2.233720   7.102470   5.931580  -9.701340  -7.973820   7.482850 -68.623600   7.490130 -28.876400   7.712500   5.408860 -50.890800  -1.760000 -23.594900 -14.357900  44.333700  19.520200 -46.905200 -10.078300   0.000316   0.000107  -0.039163   0.003445  -0.002219   2.552250   0.214925   4.787340  -0.000000   0.001985   0.005136   0.007133   0.000619   0.005787  -8.290680  -1.010170   6.899270  -8.351670   0.002472  -0.002606  -5.562220   0.002059   0.000753  -2.853610  -0.348541   6.964050  -2.875640   0.001637   0.006711  -1.915180   0.001169  -0.001383  -6.644470  -1.081710   9.205310 -10.100800   0.000390  -0.001258  -6.727110  -0.002004   0.003384   8.376480  -3.452340  15.943100  63.557800  -3.864600  23.208900 -11.470700  -2.236340  47.823900 -21.751100 -24.250600  27.268300 -44.308100  28.434700  63.849300  -1.755520   0.001449  -0.000047  -5.877770   0.007129   0.002867   7.913140  -0.117906  -0.867574   6.477060  -0.001181  -0.000426   4.533950  -0.000325  -0.001562  10.918300  -0.163301  -0.860552  10.923500   0.006718  -0.002274   7.275040   0.004820  -0.006316   6.366720  -0.094463  -0.870808   6.372380   0.003208  -0.001265   4.244010   0.001308  -0.005951  13.483900  -0.201452  -0.852582  20.231800  -0.002039  -0.005528  13.474400   0.000465  -0.002228   8.089470  12.397100  -1.235920   3.064050  23.835400   6.937280  -9.212670 -12.462800  -3.042350   0.000000   0.000000   0.000000   6.556840  22.856500  -5.591550  -0.131013   4.898560 -12.422900  -2.557210  -6.123090  -1.194040  -0.000000   0.000000   0.000000
 -8.681780  88.160500   0.328840  -1.703390 -22.851200  -0.365839   1.672580  12.202600  -2.599340   4.067640  24.306800  -5.774430  -1.364330   3.266720   0.077745  -2.260560   6.612960   6.355480  -9.716160  -7.887190   7.569770 -68.950400   7.477950 -28.686400   7.353060   5.325390 -50.490800  -2.334170 -24.391600 -14.311700  44.220300  19.373500 -46.983600  -9.902760   0.000327   0.000128   0.048609   0.003449  -0.002280   2.613680   0.215916   4.713920  -0.000000   0.002012   0.005134   0.007226   0.000634   0.005786  -8.294380  -1.022690   6.983040  -8.357620   0.002538  -0.002614  -5.566180   0.002042   0.000757  -2.888290  -0.356877   7.048230  -2.911110   0.001668   0.006703  -1.938800   0.001231  -0.001377  -6.707870  -1.116910   9.411680 -10.203600   0.000393  -0.001161  -6.795570  -0.001978   0.003400   8.508690  -3.466220  16.065000  64.026700  -4.034710  22.889000 -11.064100  -2.414240  47.626500 -21.677400 -25.011900  26.943800 -44.131200  28.387900  63.957100  -1.470660   0.001381   0.000000  -5.735350   0.007125   0.002871   8.028810  -0.150632  -1.082680   6.570890  -0.001135  -0.000353   4.599620  -0.000317  -0.001499  11.085800  -0.208212  -1.073050  11.088600   0.006821  -0.002286   7.385030   0.004920  -0.006316   6.535990  -0.122396  -1.086180   6.538020   0.003285  -0.001220   4.354330   0.001378  -0.005948  13.661600  -0.256038  -1.062850  20.497300  -0.001975  -0.005536  13.651200   0.000607  -0.002194   8.092100  12.405900  -1.283060   3.042140  23.785300   6.992960  -9.218530 -12.435800  -2.999310  -0.000000   0.000000   0.000000   6.551550  22.829200  -5.587460  -0.128925   4.896910 -12.418100  -2.499320  -6.143050  -1.117200  -0.000000   0.000000   0.000000
 -8.702990  88.167400   0.317269  -1.703590 -22.819600  -0.393500   1.678560  12.219600  -2.600860   4.081460  24.340500  -5.779770  -1.386600   3.031260   0.073245  -2.293860   6.136010   6.759290  -9.727100  -7.787690   7.670880 -69.216800   7.556710 -28.506900   6.991950   5.162500 -50.076600  -2.851140 -25.108800 -14.282000  44.086500  19.280600 -47.149500  -9.756190   0.000351   0.000141   0.121900   0.003454  -0.002336   2.641670   0.214474   4.628780  -0.000000   0.002042   0.005136   0.007309   0.000642   0.005786  -8.304810  -1.029310   7.023010  -8.369520   0.002608  -0.002615  -5.574100   0.002028   0.000757  -2.908690  -0.360970   7.088440  -2.932590   0.001700   0.006694  -1.953100   0.001295  -0.001380  -6.728770  -1.139030   9.567980 -10.241400   0.000395  -0.001060  -6.820770  -0.001948   0.003417   8.608870  -3.460750  16.159000  64.463800  -4.110470  22.595700 -10.673800  -2.578270  47.419600 -21.479600 -25.769700  26.640800 -44.056000  28.350900  64.027600  -1.249660   0.000428  -0.000000  -5.624840   0.007118   0.002892   8.199510  -0.176037  -1.231250   6.710660  -0.001092  -0.000212   4.697460  -0.000307  -0.001431  11.254400  -0.241505  -1.220060  11.257500   0.006939  -0.002288   7.497490   0.005008  -0.006310   6.704620  -0.143396  -1.235420   6.706690   0.003334  -0.001169   4.466670   0.001446  -0.005949  13.855900  -0.296522  -1.208110  20.789500  -0.001926  -0.005535  13.845800   0.000773  -0.002177   8.090360  12.401900  -1.332620   3.024600  23.729400   7.043020  -9.223740 -12.405900  -2.962190   0.000000   0.000000  -0.000000   6.546500  22.782400  -5.580650  -0.127248   4.907840 -12.415100  -2.448350  -6.168500  -1.057830  -0.000000   0.000000   0.000000
 -8.722880  88.174300   0.304596  -1.695740 -22.779800  -0.403018   1.681070  12.231900  -2.602340   4.088280  24.364800  -5.784690  -1.405160   2.791740   0.068347  -2.321970   5.650840   7.145460  -9.740990  -7.697660   7.758380 -69.430800   7.707820 -28.317100   6.627190   4.949600 -49.653000  -3.332640 -25.844800 -14.269900  43.960600  19.181100 -47.295000  -9.615290   0.000378   0.000150   0.192351   0.003457  -0.002392   2.652110   0.210828   4.534490  -0.000000   0.002072   0.005141   0.007387   0.000648   0.005786  -8.339850  -1.040640   7.071320  -8.406390   0.002679  -0.002615  -5.598650   0.002016   0.000757  -2.943510  -0.367688   7.137530  -2.968670   0.001733   0.006689  -1.977140   0.001361  -0.001384  -6.745170  -1.161260   9.727180 -10.272400   0.000397  -0.000957  -6.841410  -0.001917   0.003434   8.694000  -3.450480  16.230400  64.866700  -4.133810  22.314500 -10.295600  -2.764830  47.205100 -21.259600 -26.525200  26.356100 -43.958000  28.352000  64.118100  -1.141640  -0.000784   0.000000  -5.570820   0.007113   0.002911   8.371380  -0.189982  -1.307080   6.851370  -0.001052  -0.000074   4.795960  -0.000296  -0.001362  11.417000  -0.259158  -1.295160  11.420300   0.007056  -0.002289   7.605930   0.005096  -0.006303   6.869670  -0.155549  -1.311740   6.871810   0.003379  -0.001117   4.576650   0.001514  -0.005950  14.042400  -0.317992  -1.282250  21.069600  -0.001875  -0.005534  14.032300   0.000933  -0.002160   8.083080  12.391800  -1.374130   3.015410  23.664700   7.078740  -9.224000 -12.371800  -2.933070  -0.000000   0.000000   0.000000   6.539680  22.724500  -5.571810  -0.124060   4.926530 -12.414300  -2.402530  -6.196530  -1.011760  -0.000000   0.000000   0.000000
